<svg width="1200" height="630" viewBox="0 0 1200 630" xmlns="http://www.w3.org/2000/svg"><mask id="satori_om-id"><rect x="0" y="0" width="1200" height="630" fill="#fff"/></mask><rect x="0" y="0" width="1200" height="630" fill="#1e293b"/><mask id="satori_om-id-0"><rect x="80" y="264" width="1040" height="102" fill="#fff"/></mask><g  ><path fill="#ffffff" d="M113.7 342.3Q105.4 342.3 98.5 338.3Q91.6 334.4 87.6 327.5Q83.7 320.7 83.7 312.4L83.7 312.4Q83.7 304.0 87.6 297.2Q91.6 290.4 98.5 286.4Q105.4 282.4 113.7 282.4L113.7 282.4Q126.6 282.4 135.1 291.8L135.1 291.8L127.5 299.2Q122 292.7 113.8 292.7L113.8 292.7Q108.4 292.7 104 295.1Q99.6 297.6 97.1 302.0Q94.6 306.5 94.6 312.4L94.6 312.4Q94.6 318.2 97.1 322.7Q99.6 327.2 104 329.6Q108.4 332.0 113.8 332.0L113.8 332.0Q122.8 332.0 128.9 324.5L128.9 324.5L136.6 331.8Q132.3 336.9 126.5 339.6Q120.7 342.3 113.7 342.3L113.7 342.3ZM144.3 341L144.3 300.2L154.2 300.2L154.2 305.6L154.8 305.6Q156.3 302.8 159.5 300.9Q162.7 299 166.6 299L166.6 299Q169.4 299 171.7 299.9L171.7 299.9L171.7 310.4Q169.5 309.6 168.0 309.2Q166.6 308.8 164.9 308.8L164.9 308.8Q160.2 308.8 157.5 312.2Q154.8 315.6 154.8 320.7L154.8 320.7L154.8 341L144.3 341ZM195.2 342.3Q189.1 342.3 184.2 339.5Q179.4 336.7 176.6 331.8Q173.8 326.8 173.8 320.7L173.8 320.7Q173.8 314.8 176.6 309.8Q179.3 304.8 184.1 301.9Q188.9 298.9 194.8 298.9L194.8 298.9Q201.1 298.9 205.7 301.6Q210.2 304.4 212.6 309.1Q215.0 313.8 215.0 319.6L215.0 319.6Q215.0 321.4 214.7 323.1L214.7 323.1L184.1 323.1Q184.9 328.0 188.0 330.5Q191.0 333 195.4 333L195.4 333Q199.0 333 201.6 331.4Q204.2 329.9 205.7 327.2L205.7 327.2L214.2 331.4Q207.9 342.3 195.2 342.3L195.2 342.3ZM184.6 315.6L204.9 315.6Q204.7 313.7 203.5 311.8Q202.2 310.0 200.0 308.7Q197.8 307.5 194.9 307.5L194.9 307.5Q191.1 307.5 188.4 309.7Q185.8 311.9 184.6 315.6L184.6 315.6ZM235.9 342.3Q229.4 342.3 225.3 338.5Q221.1 334.7 221.1 328.5L221.1 328.5Q221.1 324.4 223.3 321.3Q225.4 318.2 229.2 316.5Q233.0 314.8 237.5 314.8L237.5 314.8Q243.8 314.8 248.3 316.7L248.3 316.7L248.3 314.9Q248.3 311.6 245.8 309.5Q243.3 307.4 239.0 307.4L239.0 307.4Q236.2 307.4 233.5 308.7Q230.8 310.0 229.0 312.2L229.0 312.2L222.3 306.9Q225.3 303.1 229.8 301Q234.2 298.9 239.5 298.9L239.5 298.9Q248.9 298.9 253.8 303.2Q258.6 307.6 258.6 315.9L258.6 315.9L258.6 341L248.3 341L248.3 336.8L247.7 336.8Q245.8 339.2 242.8 340.8Q239.8 342.3 235.9 342.3L235.9 342.3ZM238.4 334.1Q243.0 334.1 245.6 331.2Q248.3 328.3 248.3 324.4L248.3 324.4Q244.2 322.4 239.8 322.4L239.8 322.4Q231.6 322.4 231.6 328.5L231.6 328.5Q231.6 331 233.4 332.6Q235.1 334.1 238.4 334.1L238.4 334.1ZM285.3 341.6Q282.2 341.6 279.7 340.7Q277.1 339.8 275.5 338.2L275.5 338.2Q271.8 334.6 271.8 328.0L271.8 328.0L271.8 309.2L264.6 309.2L264.6 300.2L271.8 300.2L271.8 288.7L282.2 288.7L282.2 300.2L292.2 300.2L292.2 309.2L282.2 309.2L282.2 326.0Q282.2 329.2 283.6 330.5L283.6 330.5Q284.7 331.8 287.4 331.8L287.4 331.8Q289.0 331.8 290.0 331.4Q291.0 331 292.6 330.0L292.6 330.0L292.6 340.3Q289.1 341.6 285.3 341.6L285.3 341.6ZM307.3 295.7Q304.5 295.7 302.5 293.7Q300.5 291.7 300.5 288.9L300.5 288.9Q300.5 286.1 302.5 284.2Q304.5 282.2 307.3 282.2L307.3 282.2Q310.1 282.2 312.0 284.2Q314.0 286.1 314.0 288.9L314.0 288.9Q314.0 291.7 312.0 293.7Q310.1 295.7 307.3 295.7L307.3 295.7ZM302.0 341L302.0 300.2L312.5 300.2L312.5 341L302.0 341ZM336.2 341L318.9 300.2L330.8 300.2L341.1 326.8L341.8 326.8L352.2 300.2L364.0 300.2L346.6 341L336.2 341ZM387.6 342.3Q381.5 342.3 376.6 339.5Q371.8 336.7 369.0 331.8Q366.2 326.8 366.2 320.7L366.2 320.7Q366.2 314.8 369.0 309.8Q371.7 304.8 376.5 301.9Q381.3 298.9 387.2 298.9L387.2 298.9Q393.5 298.9 398.1 301.6Q402.6 304.4 405.0 309.1Q407.4 313.8 407.4 319.6L407.4 319.6Q407.4 321.4 407.1 323.1L407.1 323.1L376.5 323.1Q377.3 328.0 380.4 330.5Q383.4 333 387.8 333L387.8 333Q391.4 333 394.0 331.4Q396.6 329.9 398.1 327.2L398.1 327.2L406.6 331.4Q400.3 342.3 387.6 342.3L387.6 342.3ZM377.0 315.6L397.3 315.6Q397.1 313.7 395.9 311.8Q394.6 310.0 392.4 308.7Q390.2 307.5 387.3 307.5L387.3 307.5Q383.5 307.5 380.8 309.7Q378.2 311.9 377.0 315.6L377.0 315.6Z M434.6 341L456.1 283.7L468.5 283.7L490.0 341L478.1 341L473.3 327.3L451.4 327.3L446.6 341L434.6 341ZM454.8 317.4L469.8 317.4L464.7 303L462.6 296.1L462.0 296.1L459.9 303L454.8 317.4ZM514.3 359.6Q506.6 359.6 501.4 356.1Q496.3 352.6 494.6 347.7L494.6 347.7L504.4 343.7Q505.7 346.8 508.3 348.5Q511.0 350.3 514.3 350.3L514.3 350.3Q519.3 350.3 522.2 347.2Q525.1 344.2 525.1 338.6L525.1 338.6L525.1 335.4L524.5 335.4Q522.6 338.1 519.4 339.6Q516.3 341 512.3 341L512.3 341Q507.3 341 502.9 338.4Q498.6 335.8 495.9 331.0Q493.3 326.3 493.3 320.0L493.3 320.0Q493.3 313.6 495.9 308.9Q498.6 304.1 502.9 301.5Q507.3 298.9 512.3 298.9L512.3 298.9Q516.3 298.9 519.4 300.4Q522.6 301.8 524.5 304.5L524.5 304.5L525.1 304.5L525.1 300.2L535.2 300.2L535.2 338.2Q535.2 344.8 532.6 349.6Q530.1 354.4 525.4 357.0Q520.6 359.6 514.3 359.6L514.3 359.6ZM514.5 331.5Q518.9 331.5 522.0 328.4Q525.1 325.3 525.1 320.0L525.1 320.0Q525.1 314.4 522.0 311.4Q519.0 308.4 514.5 308.4L514.5 308.4Q510.0 308.4 506.9 311.5Q503.8 314.5 503.8 320.0L503.8 320.0Q503.8 325.4 506.9 328.4Q510.0 331.5 514.5 331.5L514.5 331.5ZM564.2 342.3Q558.1 342.3 553.2 339.5Q548.3 336.7 545.6 331.8Q542.8 326.8 542.8 320.7L542.8 320.7Q542.8 314.8 545.5 309.8Q548.2 304.8 553.0 301.9Q557.8 298.9 563.8 298.9L563.8 298.9Q570.1 298.9 574.6 301.6Q579.2 304.4 581.6 309.1Q583.9 313.8 583.9 319.6L583.9 319.6Q583.9 321.4 583.7 323.1L583.7 323.1L553.0 323.1Q553.8 328.0 556.9 330.5Q560 333 564.3 333L564.3 333Q567.9 333 570.5 331.4Q573.1 329.9 574.6 327.2L574.6 327.2L583.1 331.4Q576.9 342.3 564.2 342.3L564.2 342.3ZM553.5 315.6L573.8 315.6Q573.7 313.7 572.4 311.8Q571.2 310.0 569 308.7Q566.8 307.5 563.8 307.5L563.8 307.5Q560.1 307.5 557.4 309.7Q554.7 311.9 553.5 315.6L553.5 315.6ZM592 341L592 300.2L601.8 300.2L601.8 305.3L602.5 305.3Q604.3 302.4 607.7 300.6Q611.0 298.9 615.0 298.9L615.0 298.9Q622.3 298.9 626.2 303.4Q630 307.9 630 315.6L630 315.6L630 341L619.5 341L619.5 316.9Q619.5 313 617.5 310.8Q615.5 308.7 611.9 308.7L611.9 308.7Q607.7 308.7 605.1 312.0Q602.5 315.2 602.5 320.2L602.5 320.2L602.5 341L592 341ZM659.1 342.3Q653.0 342.3 648.1 339.5Q643.2 336.8 640.4 331.8Q637.7 326.8 637.7 320.6L637.7 320.6Q637.7 314.4 640.4 309.4Q643.2 304.5 648.1 301.7Q653.0 298.9 659.1 298.9L659.1 298.9Q665.9 298.9 670.8 301.8Q675.7 304.8 677.8 310.1L677.8 310.1L668.2 314.1Q665.7 308.7 659.1 308.7L659.1 308.7Q654.3 308.7 651.2 312.0Q648.2 315.2 648.2 320.6L648.2 320.6Q648.2 326.0 651.2 329.3Q654.3 332.6 659.1 332.6L659.1 332.6Q665.8 332.6 668.7 326.8L668.7 326.8L678.2 331Q675.6 336.4 670.7 339.3Q665.8 342.3 659.1 342.3L659.1 342.3ZM689.8 358.3L698.5 339.1L681.3 300.2L693.2 300.2L703.8 325.6L704.4 325.6L714.6 300.2L726.2 300.2L701.0 358.3L689.8 358.3Z "/></g></svg>