<svg width="1200" height="630" viewBox="0 0 1200 630" xmlns="http://www.w3.org/2000/svg"><mask id="satori_om-id"><rect x="0" y="0" width="1200" height="630" fill="#fff"/></mask><rect x="0" y="0" width="1200" height="630" fill="#0f172a"/><mask id="satori_om-id-0"><rect x="80" y="264" width="1040" height="102" fill="#fff"/></mask><g  ><path fill="#ffffff" d="M86.6 341L86.6 283.7L100.5 283.7L115.7 324.0L116.3 324.0L131.5 283.7L145.5 283.7L145.5 341L134.8 341L134.8 312.8L135.4 303.2L134.8 303.2L120.2 341L111.8 341L97.2 303.2L96.6 303.2L97.2 312.8L97.2 341L86.6 341ZM176.6 342.3Q170.3 342.3 165.4 339.4Q160.4 336.6 157.6 331.7Q154.9 326.8 154.9 320.6L154.9 320.6Q154.9 314.5 157.6 309.6Q160.4 304.6 165.4 301.8Q170.3 298.9 176.6 298.9L176.6 298.9Q182.9 298.9 187.8 301.8Q192.8 304.6 195.6 309.6Q198.3 314.5 198.3 320.6L198.3 320.6Q198.3 326.8 195.6 331.7Q192.8 336.6 187.8 339.4Q182.9 342.3 176.6 342.3L176.6 342.3ZM176.6 332.6Q179.7 332.6 182.2 331.2Q184.8 329.7 186.3 327Q187.8 324.3 187.8 320.6L187.8 320.6Q187.8 317 186.3 314.3Q184.8 311.6 182.2 310.1Q179.7 308.7 176.6 308.7L176.6 308.7Q173.6 308.7 171.0 310.1Q168.5 311.6 166.9 314.3Q165.4 317 165.4 320.6L165.4 320.6Q165.4 324.2 166.9 327.0Q168.5 329.7 171.0 331.2Q173.6 332.6 176.6 332.6L176.6 332.6ZM223.8 342.3Q218.3 342.3 213.8 339.5Q209.3 336.8 206.7 331.8Q204.1 326.9 204.1 320.6L204.1 320.6Q204.1 314.4 206.7 309.4Q209.3 304.4 213.8 301.7Q218.3 298.9 223.8 298.9L223.8 298.9Q228 298.9 231.2 300.7Q234.4 302.5 236.1 305.2L236.1 305.2L236.7 305.2L236.1 299.4L236.1 283.7L246.5 283.7L246.5 341L236.7 341L236.7 336.1L236.1 336.1Q234.5 338.8 231.2 340.5Q228 342.3 223.8 342.3L223.8 342.3ZM225.6 332.6Q228.6 332.6 231.1 331.1Q233.7 329.6 235.2 326.8Q236.7 324.1 236.7 320.6L236.7 320.6Q236.7 317.1 235.2 314.4Q233.7 311.6 231.1 310.2Q228.6 308.7 225.6 308.7L225.6 308.7Q222.7 308.7 220.2 310.2Q217.6 311.6 216.1 314.4Q214.6 317.1 214.6 320.6L214.6 320.6Q214.6 324.1 216.1 326.8Q217.6 329.6 220.2 331.1Q222.7 332.6 225.6 332.6L225.6 332.6ZM275.5 342.3Q269.4 342.3 264.6 339.5Q259.7 336.7 256.9 331.8Q254.2 326.8 254.2 320.7L254.2 320.7Q254.2 314.8 256.9 309.8Q259.6 304.8 264.4 301.9Q269.2 298.9 275.1 298.9L275.1 298.9Q281.4 298.9 286 301.6Q290.6 304.4 292.9 309.1Q295.3 313.8 295.3 319.6L295.3 319.6Q295.3 321.4 295.0 323.1L295.0 323.1L264.4 323.1Q265.2 328.0 268.3 330.5Q271.4 333 275.7 333L275.7 333Q279.3 333 281.9 331.4Q284.5 329.9 286 327.2L286 327.2L294.5 331.4Q288.2 342.3 275.5 342.3L275.5 342.3ZM264.9 315.6L285.2 315.6Q285.0 313.7 283.8 311.8Q282.6 310.0 280.4 308.7Q278.2 307.5 275.2 307.5L275.2 307.5Q271.4 307.5 268.8 309.7Q266.1 311.9 264.9 315.6L264.9 315.6ZM303.4 341L303.4 300.2L313.2 300.2L313.2 305.6L313.8 305.6Q315.4 302.8 318.6 300.9Q321.8 299 325.6 299L325.6 299Q328.4 299 330.7 299.9L330.7 299.9L330.7 310.4Q328.6 309.6 327.1 309.2Q325.6 308.8 323.9 308.8L323.9 308.8Q319.3 308.8 316.6 312.2Q313.8 315.6 313.8 320.7L313.8 320.7L313.8 341L303.4 341ZM337.5 341L337.5 300.2L347.4 300.2L347.4 305.3L348.0 305.3Q349.8 302.4 353.2 300.6Q356.6 298.9 360.5 298.9L360.5 298.9Q367.8 298.9 371.7 303.4Q375.5 307.9 375.5 315.6L375.5 315.6L375.5 341L365.0 341L365.0 316.9Q365.0 313 363.0 310.8Q361.0 308.7 357.4 308.7L357.4 308.7Q353.2 308.7 350.6 312.0Q348.0 315.2 348.0 320.2L348.0 320.2L348.0 341L337.5 341Z M400.6 341L422.1 283.7L434.5 283.7L456.0 341L444.1 341L439.3 327.3L417.4 327.3L412.6 341L400.6 341ZM420.8 317.4L435.8 317.4L430.7 303L428.6 296.1L428.0 296.1L425.9 303L420.8 317.4ZM480.3 359.6Q472.6 359.6 467.4 356.1Q462.3 352.6 460.6 347.7L460.6 347.7L470.4 343.7Q471.7 346.8 474.3 348.5Q477.0 350.3 480.3 350.3L480.3 350.3Q485.3 350.3 488.2 347.2Q491.1 344.2 491.1 338.6L491.1 338.6L491.1 335.4L490.5 335.4Q488.6 338.1 485.4 339.6Q482.3 341 478.3 341L478.3 341Q473.3 341 468.9 338.4Q464.6 335.8 461.9 331.0Q459.3 326.3 459.3 320.0L459.3 320.0Q459.3 313.6 461.9 308.9Q464.6 304.1 468.9 301.5Q473.3 298.9 478.3 298.9L478.3 298.9Q482.3 298.9 485.4 300.4Q488.6 301.8 490.5 304.5L490.5 304.5L491.1 304.5L491.1 300.2L501.2 300.2L501.2 338.2Q501.2 344.8 498.6 349.6Q496.1 354.4 491.4 357.0Q486.6 359.6 480.3 359.6L480.3 359.6ZM480.5 331.5Q484.9 331.5 488.0 328.4Q491.1 325.3 491.1 320.0L491.1 320.0Q491.1 314.4 488.0 311.4Q485.0 308.4 480.5 308.4L480.5 308.4Q476.0 308.4 472.9 311.5Q469.8 314.5 469.8 320.0L469.8 320.0Q469.8 325.4 472.9 328.4Q476.0 331.5 480.5 331.5L480.5 331.5ZM530.2 342.3Q524.1 342.3 519.2 339.5Q514.3 336.7 511.6 331.8Q508.8 326.8 508.8 320.7L508.8 320.7Q508.8 314.8 511.5 309.8Q514.2 304.8 519.0 301.9Q523.8 298.9 529.8 298.9L529.8 298.9Q536.1 298.9 540.6 301.6Q545.2 304.4 547.6 309.1Q549.9 313.8 549.9 319.6L549.9 319.6Q549.9 321.4 549.7 323.1L549.7 323.1L519.0 323.1Q519.8 328.0 522.9 330.5Q526.0 333 530.3 333L530.3 333Q533.9 333 536.5 331.4Q539.1 329.9 540.6 327.2L540.6 327.2L549.1 331.4Q542.9 342.3 530.2 342.3L530.2 342.3ZM519.5 315.6L539.8 315.6Q539.7 313.7 538.4 311.8Q537.2 310.0 535.0 308.7Q532.8 307.5 529.8 307.5L529.8 307.5Q526.1 307.5 523.4 309.7Q520.7 311.9 519.5 315.6L519.5 315.6ZM558.0 341L558.0 300.2L567.8 300.2L567.8 305.3L568.5 305.3Q570.3 302.4 573.7 300.6Q577.0 298.9 581.0 298.9L581.0 298.9Q588.3 298.9 592.2 303.4Q596.0 307.9 596.0 315.6L596.0 315.6L596.0 341L585.5 341L585.5 316.9Q585.5 313 583.5 310.8Q581.5 308.7 577.9 308.7L577.9 308.7Q573.7 308.7 571.1 312.0Q568.5 315.2 568.5 320.2L568.5 320.2L568.5 341L558.0 341ZM625.1 342.3Q619.0 342.3 614.1 339.5Q609.2 336.8 606.4 331.8Q603.7 326.8 603.7 320.6L603.7 320.6Q603.7 314.4 606.4 309.4Q609.2 304.5 614.1 301.7Q619.0 298.9 625.1 298.9L625.1 298.9Q631.9 298.9 636.8 301.8Q641.7 304.8 643.8 310.1L643.8 310.1L634.2 314.1Q631.7 308.7 625.1 308.7L625.1 308.7Q620.3 308.7 617.2 312.0Q614.2 315.2 614.2 320.6L614.2 320.6Q614.2 326.0 617.2 329.3Q620.3 332.6 625.1 332.6L625.1 332.6Q631.8 332.6 634.7 326.8L634.7 326.8L644.2 331Q641.6 336.4 636.7 339.3Q631.8 342.3 625.1 342.3L625.1 342.3ZM655.8 358.3L664.5 339.1L647.3 300.2L659.2 300.2L669.8 325.6L670.4 325.6L680.6 300.2L692.2 300.2L667.0 358.3L655.8 358.3Z "/></g></svg>